<?xml version="1.0" encoding="UTF-8" standalone="no"?>
<svg width="24px" height="24px" viewBox="0 0 24 24" version="1.1" xmlns="http://www.w3.org/2000/svg" xmlns:xlink="http://www.w3.org/1999/xlink">
    <!-- Generator: sketchtool 39 (31562) - http://www.bohemiancoding.com/sketch -->
    <title>C7C4DC84-6EA0-4D2E-B4BB-D6E5B56683AF</title>
    <desc>Created with sketchtool.</desc>
    <defs></defs>
    <g id="Symbols" stroke="none" stroke-width="1" fill="none" fill-rule="evenodd">
        <g id="siderbar/siderbar_ticket" fill="#FFFFFF">
            <g id="ticket" transform="translate(2.000000, 2.000000)">
                <g id="Ebene_1">
                    <g id="Group">
                        <path d="M0.183125,12.941875 L1.853125,14.6115625 C2.0971875,14.855625 2.493125,14.855625 2.736875,14.6115625 C3.0909375,14.2575 3.5615625,14.0625 4.0625,14.0625 C5.0965625,14.0625 5.9375,14.9034375 5.9375,15.9375 C5.9375,16.4384375 5.7421875,16.9090625 5.388125,17.2634375 C5.2709375,17.380625 5.205,17.5396875 5.205,17.7053125 C5.205,17.8709375 5.2709375,18.03 5.388125,18.1471875 L7.058125,19.816875 C7.1803125,19.9390625 7.34,20 7.5,20 C7.66,20 7.82,19.9390625 7.941875,19.816875 L19.816875,7.941875 C19.934375,7.8246875 20,7.665625 20,7.5 C20,7.334375 19.9340625,7.1753125 19.816875,7.058125 L18.146875,5.3884375 C17.9028125,5.144375 17.506875,5.144375 17.263125,5.3884375 C16.9090625,5.7425 16.4384375,5.9375 15.9375,5.9375 C14.9034375,5.9375 14.0625,5.0965625 14.0625,4.0625 C14.0625,3.5615625 14.2578125,3.0909375 14.611875,2.7365625 C14.7290625,2.619375 14.795,2.4603125 14.795,2.2946875 C14.795,2.1290625 14.7290625,1.97 14.611875,1.8528125 L12.941875,0.183125 C12.6978125,-0.0609375 12.301875,-0.0609375 12.058125,0.183125 L0.183125,12.058125 C0.065625,12.1753125 0,12.334375 0,12.5 C0,12.665625 0.0659375,12.8246875 0.183125,12.941875 L0.183125,12.941875 Z M8.125,5.88375 L8.620625,6.379375 C8.7425,6.5015625 8.9025,6.5625 9.0625,6.5625 C9.2225,6.5625 9.3825,6.5015625 9.504375,6.379375 C9.7484375,6.1353125 9.7484375,5.7396875 9.504375,5.495625 L9.00875,5 L12.5,1.50875 L13.33,2.3384375 C12.9934375,2.8453125 12.8125,3.4403125 12.8125,4.0625 C12.8125,5.785625 14.214375,7.1875 15.9375,7.1875 C16.56,7.1875 17.154375,7.006875 17.66125,6.6703125 L18.4909375,7.5 L15,10.99125 L14.504375,10.495625 C14.260625,10.2515625 13.864375,10.2515625 13.620625,10.495625 C13.3765625,10.7396875 13.3765625,11.1353125 13.620625,11.379375 L14.11625,11.875 L7.5,18.49125 L6.67,17.6615625 C7.0065625,17.1546875 7.1875,16.5596875 7.1875,15.9375 C7.1875,14.214375 5.785625,12.8125 4.0625,12.8125 C3.44,12.8125 2.845625,12.993125 2.33875,13.3296875 L1.5090625,12.5 L8.125,5.88375 L8.125,5.88375 Z" id="Shape"></path>
                        <path d="M10.495625,8.254375 C10.6175,8.3765625 10.7775,8.4375 10.9375,8.4375 C11.0975,8.4375 11.2575,8.3765625 11.379375,8.254375 C11.6234375,8.0103125 11.6234375,7.6146875 11.379375,7.370625 L10.754375,6.745625 C10.510625,6.5015625 10.114375,6.5015625 9.870625,6.745625 C9.6265625,6.9896875 9.6265625,7.3853125 9.870625,7.629375 L10.495625,8.254375 L10.495625,8.254375 Z" id="Shape"></path>
                        <path d="M11.745625,9.504375 L12.370625,10.129375 C12.4925,10.2515625 12.6525,10.3125 12.8125,10.3125 C12.9725,10.3125 13.1325,10.2515625 13.254375,10.129375 C13.4984375,9.8853125 13.4984375,9.4896875 13.254375,9.245625 L12.629375,8.620625 C12.385625,8.3765625 11.989375,8.3765625 11.745625,8.620625 C11.5015625,8.8646875 11.5015625,9.2603125 11.745625,9.504375 L11.745625,9.504375 Z" id="Shape"></path>
                    </g>
                </g>
            </g>
        </g>
    </g>
</svg>